<svg width="16" height="16" viewBox="0 0 16 16" fill="none" xmlns="http://www.w3.org/2000/svg">
<path d="M3.83403 12.1637H4.65113L9.68504 7.12264L8.86794 6.30437L3.83403 11.3455V12.1637ZM12.1801 6.27515L9.69963 3.82035L10.5167 3.00209C10.7405 2.77804 11.0153 2.66602 11.3411 2.66602C11.667 2.66602 11.9418 2.77804 12.1655 3.00209L12.9826 3.82035C13.2064 4.0444 13.3231 4.31472 13.3328 4.63131C13.3425 4.9479 13.2355 5.21822 13.0118 5.44227L12.1801 6.27515ZM11.3338 7.13725L5.14723 13.3327H2.66675V10.8487L8.85335 4.65323L11.3338 7.13725ZM9.27649 6.7135L8.86794 6.30437L9.68504 7.12264L9.27649 6.7135Z" fill="white"/>
</svg>
