<svg width="20" height="20" viewBox="0 0 20 20" fill="none" xmlns="http://www.w3.org/2000/svg">
<path d="M12.4848 10.3529L11.606 9.49851C11.6969 9.03695 11.5605 8.60485 11.1969 8.20221C10.8333 7.79957 10.3636 7.64245 9.7878 7.73083L8.90901 6.87645C9.08073 6.79789 9.25497 6.73897 9.43174 6.69969C9.6085 6.6604 9.7979 6.64076 9.99992 6.64076C10.7575 6.64076 11.4014 6.89855 11.9317 7.41412C12.462 7.92969 12.7272 8.55575 12.7272 9.29228C12.7272 9.48869 12.707 9.67282 12.6666 9.84468C12.6262 10.0165 12.5656 10.1859 12.4848 10.3529ZM14.4242 12.2089L13.5454 11.384C13.9292 11.0992 14.2701 10.7874 14.5681 10.4486C14.8661 10.1098 15.1211 9.72438 15.3333 9.29228C14.8282 8.30042 14.1035 7.51233 13.159 6.92801C12.2146 6.3437 11.1615 6.05154 9.99992 6.05154C9.70699 6.05154 9.41911 6.07118 9.13628 6.11046C8.85345 6.14974 8.57568 6.20866 8.30295 6.28723L7.36355 5.37393C7.7777 5.20698 8.20194 5.08177 8.63628 4.9983C9.07063 4.91482 9.52517 4.87309 9.99992 4.87309C11.5252 4.87309 12.8838 5.28309 14.0757 6.10309C15.2676 6.9231 16.1312 7.98616 16.6666 9.29228C16.4343 9.87168 16.1287 10.4094 15.7499 10.9053C15.3711 11.4012 14.9292 11.8358 14.4242 12.2089ZM14.7272 15.8327L12.1817 13.3874C11.8282 13.4954 11.4721 13.5764 11.1136 13.6305C10.755 13.6845 10.3838 13.7115 9.99992 13.7115C8.47467 13.7115 7.11608 13.3015 5.92416 12.4815C4.73224 11.6615 3.86861 10.5984 3.33325 9.29228C3.54537 8.7718 3.81305 8.28814 4.13628 7.84131C4.45951 7.39448 4.8282 6.9943 5.24234 6.64076L3.57568 4.99093L4.42416 4.16602L15.5757 15.0078L14.7272 15.8327ZM6.09083 7.46568C5.7979 7.72101 5.53022 8.00089 5.2878 8.30533C5.04537 8.60976 4.8383 8.93874 4.66659 9.29228C5.17164 10.2841 5.89638 11.0722 6.84083 11.6565C7.78527 12.2409 8.8383 12.533 9.99992 12.533C10.2019 12.533 10.3989 12.5207 10.5908 12.4962C10.7827 12.4716 10.9797 12.4446 11.1817 12.4152L10.6363 11.8554C10.5252 11.8849 10.4191 11.907 10.3181 11.9217C10.2171 11.9364 10.111 11.9438 9.99992 11.9438C9.24234 11.9438 8.5984 11.686 8.0681 11.1704C7.5378 10.6549 7.27265 10.0288 7.27265 9.29228C7.27265 9.18425 7.28022 9.08114 7.29537 8.98293C7.31052 8.88473 7.33325 8.78162 7.36355 8.67359L6.09083 7.46568Z" fill="#CCCCCC"/>
</svg>
