<svg width="16" height="16" viewBox="0 0 16 16" fill="none" xmlns="http://www.w3.org/2000/svg">
<path d="M7.99984 7.99935C7.2665 7.99935 6.63873 7.73824 6.1165 7.21602C5.59428 6.69379 5.33317 6.06602 5.33317 5.33268C5.33317 4.59935 5.59428 3.97157 6.1165 3.44935C6.63873 2.92713 7.2665 2.66602 7.99984 2.66602C8.73317 2.66602 9.36095 2.92713 9.88317 3.44935C10.4054 3.97157 10.6665 4.59935 10.6665 5.33268C10.6665 6.06602 10.4054 6.69379 9.88317 7.21602C9.36095 7.73824 8.73317 7.99935 7.99984 7.99935ZM2.6665 13.3327V11.466C2.6665 11.0882 2.76373 10.741 2.95817 10.4243C3.15261 10.1077 3.41095 9.86602 3.73317 9.69935C4.42206 9.3549 5.12206 9.09657 5.83317 8.92435C6.54428 8.75213 7.2665 8.66602 7.99984 8.66602C8.73317 8.66602 9.45539 8.75213 10.1665 8.92435C10.8776 9.09657 11.5776 9.3549 12.2665 9.69935C12.5887 9.86602 12.8471 10.1077 13.0415 10.4243C13.2359 10.741 13.3332 11.0882 13.3332 11.466V13.3327H2.6665ZM3.99984 11.9993H11.9998V11.466C11.9998 11.3438 11.9693 11.2327 11.9082 11.1327C11.8471 11.0327 11.7665 10.9549 11.6665 10.8993C11.0665 10.5993 10.4609 10.3743 9.84984 10.2243C9.23873 10.0743 8.62206 9.99935 7.99984 9.99935C7.37761 9.99935 6.76095 10.0743 6.14984 10.2243C5.53873 10.3743 4.93317 10.5993 4.33317 10.8993C4.23317 10.9549 4.15261 11.0327 4.0915 11.1327C4.03039 11.2327 3.99984 11.3438 3.99984 11.466V11.9993ZM7.99984 6.66602C8.3665 6.66602 8.68039 6.53546 8.9415 6.27435C9.20261 6.01324 9.33317 5.69935 9.33317 5.33268C9.33317 4.96602 9.20261 4.65213 8.9415 4.39102C8.68039 4.1299 8.3665 3.99935 7.99984 3.99935C7.63317 3.99935 7.31928 4.1299 7.05817 4.39102C6.79706 4.65213 6.6665 4.96602 6.6665 5.33268C6.6665 5.69935 6.79706 6.01324 7.05817 6.27435C7.31928 6.53546 7.63317 6.66602 7.99984 6.66602Z" fill="#CCCCCC"/>
</svg>
