<svg width="16" height="16" viewBox="0 0 16 16" fill="none" xmlns="http://www.w3.org/2000/svg">
<path d="M8.00008 9.86667C8.60614 9.86667 9.12129 9.65278 9.54554 9.225C9.96978 8.79722 10.1819 8.27778 10.1819 7.66667C10.1819 7.05556 9.96978 6.53611 9.54554 6.10833C9.12129 5.68056 8.60614 5.46667 8.00008 5.46667C7.39402 5.46667 6.87887 5.68056 6.45463 6.10833C6.03038 6.53611 5.81826 7.05556 5.81826 7.66667C5.81826 8.27778 6.03038 8.79722 6.45463 9.225C6.87887 9.65278 7.39402 9.86667 8.00008 9.86667ZM8.00008 8.98667C7.63645 8.98667 7.32735 8.85833 7.07281 8.60167C6.81826 8.345 6.69099 8.03333 6.69099 7.66667C6.69099 7.3 6.81826 6.98833 7.07281 6.73167C7.32735 6.475 7.63645 6.34667 8.00008 6.34667C8.36372 6.34667 8.67281 6.475 8.92735 6.73167C9.1819 6.98833 9.30917 7.3 9.30917 7.66667C9.30917 8.03333 9.1819 8.345 8.92735 8.60167C8.67281 8.85833 8.36372 8.98667 8.00008 8.98667ZM8.00008 11.3333C6.82028 11.3333 5.74554 11.0013 4.77584 10.3372C3.80614 9.67315 3.10311 8.78296 2.66675 7.66667C3.10311 6.55037 3.80614 5.66019 4.77584 4.99611C5.74554 4.33204 6.82028 4 8.00008 4C9.17988 4 10.2546 4.33204 11.2243 4.99611C12.194 5.66019 12.8971 6.55037 13.3334 7.66667C12.8971 8.78296 12.194 9.67315 11.2243 10.3372C10.2546 11.0013 9.17988 11.3333 8.00008 11.3333ZM8.00008 10.3556C8.91321 10.3556 9.7516 10.1131 10.5152 9.62833C11.2789 9.14352 11.8627 8.48963 12.2667 7.66667C11.8627 6.8437 11.2789 6.18981 10.5152 5.705C9.7516 5.22019 8.91321 4.97778 8.00008 4.97778C7.08695 4.97778 6.24857 5.22019 5.48493 5.705C4.72129 6.18981 4.13746 6.8437 3.73341 7.66667C4.13746 8.48963 4.72129 9.14352 5.48493 9.62833C6.24857 10.1131 7.08695 10.3556 8.00008 10.3556Z" fill="white"/>
</svg>
